<svg height="32" width="32" viewBox="0 0 32 32" xmlns="http://www.w3.org/2000/svg"> <path d="M29 16C28.992 22.575 24.083 28.112 17.556 28.907C17.414 28.924 17.272 28.878 17.166 28.783C17.059 28.687 16.999 28.55 17 28.407L17 19L20 19C20.277 19.001 20.542 18.886 20.732 18.684C20.921 18.482 21.018 18.21 21 17.934C20.954 17.4 20.504 16.993 19.969 17L17 17L17 14C17 12.895 17.895 12 19 12L21 12C21.277 12.001 21.542 11.886 21.732 11.684C21.921 11.482 22.018 11.21 22 10.934C21.954 10.399 21.503 9.991 20.966 10L19 10C16.791 10 15 11.791 15 14L15 17L12 17C11.723 16.999 11.458 17.114 11.268 17.316C11.079 17.518 10.982 17.79 11 18.066C11.046 18.601 11.497 19.009 12.034 19L15 19L15 28.41C15.001 28.553 14.941 28.689 14.835 28.785C14.729 28.88 14.587 28.926 14.445 28.91C7.731 28.092 2.762 22.27 3.009 15.511C3.259 8.761 8.726 3.274 15.481 3.011C19.015 2.874 22.452 4.181 25.002 6.631C27.552 9.081 28.996 12.464 29 16Z" fill="#F4F1DE"></path> </svg>