<svg height="100%" width="100%" version="1.1" viewBox="0 -25 380 480"  xmlns="http://www.w3.org/2000/svg">
                <g transform="scale(-1, 1) translate(-380, 0)">
                    <g id="head" transform="translate(82.000000, 0.000000)"><defs><path d="M59.5761618,12.9456954 C59.3658913,11.6405875 59.7821901,11.0000348 54.5346912,7.32322248 C49.2871923,3.64641021 40.8148726,-0.690083867 32.2816409,1.19718054 C21.2074934,3.64641021 16.8090436,10.95123 12.5386337,14.5025253 C8.68897397,17.7040264 4.82639368,18.0773849 2.53730321,22.0499243 C0.248212735,26.0224636 -0.969669172,37.4512721 1.02080294,41.9950076 C3.76655586,48.2628548 9.18121558,49.9508389 13.133879,51.7566178 C19.9127597,54.8535575 29.4945554,51.5827766 29.7266676,51.0409656 C31.5221564,46.8498232 41.186894,35.0268608 47,30.0596268 C51.2746625,26.4069756 60.5630562,19.0711556 59.5761618,12.9456954 Z" id="path-1"></path></defs><g id="Head/Front/Turban-1" stroke="none" stroke-width="1" fill="none" fill-rule="evenodd"><g id="Head" transform="translate(54.000000, 31.000000)" fill="rgb(0, 0, 0)"><path d="M8.26227388,34.4901268 C3.65436435,29.0813759 0.535634794,22.4528771 1.05677633,15.0254539 C2.55833022,-6.37502057 32.3485306,-1.66718886 38.1433414,9.13393292 C43.9381521,19.9350547 43.249578,47.3329958 35.7603014,49.2634576 C32.7735882,50.033323 26.4110012,48.1474609 19.935372,44.244306 L24,73 L0,73 L8.26227388,34.4901268 Z"></path></g><g id="Turban"><mask id="mask-2" fill="white"><use xlinkHref="#path-1"></use></mask><use fill="#5C63AB" xlinkHref="#path-1"></use><path d="M12.4570236,12 C14.25711,23.3796891 18.9826226,33.7873661 26.6335616,43.223031 C17.7122912,36.3009755 11.8344374,26.6221332 9,14.1865041 L12.4570236,12 Z M7.99840897,16.3421428 C10.9512397,28.5681061 18.6184367,40.1207252 31,51 C16.673342,42.3522376 7.67334197,31.1925804 4,17.5210284 L7.99840897,16.3421428 Z" id="SHade" fill-opacity="0.2" fill="#000000" mask="url(#mask-2)"></path></g></g></g><g id="bottom" transform="translate(0.000000, 187.000000)"><g id="Bottom/Standing/Baggy-Pants" stroke="none" stroke-width="1" fill="none" fill-rule="evenodd"><polygon id="Leg" fill="rgb(0, 0, 0)" points="134 0 183.081639 124.226909 216.000898 229.25029 229 229.25029 178.673688 5.090379e-13"></polygon><path d="M124.116628,0 C123.593979,43.6541888 115.971833,102.427468 114.754071,105.148648 C113.942229,106.962768 85.9161573,130.032465 30.6758546,174.357739 L39.6290713,183.938736 C104.807511,145.935376 138.9048,124.399339 141.920937,119.330628 C146.445143,111.72756 161.1744,41.763137 173,0 L124.116628,0 Z" id="Leg" fill="rgb(0, 0, 0)"></path><g id="Accessories/Shoe/Flat-Sneaker" transform="translate(51.500000, 189.000000) rotate(50.000000) translate(-51.500000, -189.000000) translate(21.000000, 169.000000)" fill="#E4E4E4"><path d="M2.67813181,25.4019242 C1.55937727,28.3884109 1,30.6229931 1,32.1056708 C1,33.908957 1.3004142,36.5404001 1.90124261,40 C3.99318117,40 22.7937852,40 58.3030548,40 C59.768738,35.1545073 58.9226607,32.5385816 55.7648228,32.1522232 C52.606985,31.7658647 49.9837155,31.4170139 47.8950143,31.1056708 L21.6799926,19.4188835 C21.1755635,19.1940064 20.584344,19.4206282 20.359467,19.9250573 C20.35562,19.9336867 20.3518954,19.9423702 20.3482945,19.9511052 L18.6632131,24.038695 C15.7398812,25.4026522 13.3643706,26.0846307 11.5366811,26.0846307 C10.0517269,26.0846307 8.00099246,25.4849054 5.38447792,24.2854549 L5.38448339,24.285443 C4.38038273,23.8251478 3.19325534,24.2659892 2.73296014,25.2700899 C2.71312074,25.3133681 2.69483298,25.3573409 2.67813181,25.4019242 Z" id="shoe"></path></g><g id="Accessories/Shoe/Flat-Sneaker" transform="translate(208.000000, 199.000000)" fill="#E4E4E4"><path d="M2.67813181,25.4019242 C1.55937727,28.3884109 1,30.6229931 1,32.1056708 C1,33.908957 1.3004142,36.5404001 1.90124261,40 C3.99318117,40 22.7937852,40 58.3030548,40 C59.768738,35.1545073 58.9226607,32.5385816 55.7648228,32.1522232 C52.606985,31.7658647 49.9837155,31.4170139 47.8950143,31.1056708 L21.6799926,19.4188835 C21.1755635,19.1940064 20.584344,19.4206282 20.359467,19.9250573 C20.35562,19.9336867 20.3518954,19.9423702 20.3482945,19.9511052 L18.6632131,24.038695 C15.7398812,25.4026522 13.3643706,26.0846307 11.5366811,26.0846307 C10.0517269,26.0846307 8.00099246,25.4849054 5.38447792,24.2854549 L5.38448339,24.285443 C4.38038273,23.8251478 3.19325534,24.2659892 2.73296014,25.2700899 C2.71312074,25.3133681 2.69483298,25.3573409 2.67813181,25.4019242 Z" id="shoe"></path></g><polygon id="Pant" fill="#69A1AC" points="167 218.432889 228.804464 211.725327 183 2.84217094e-14 127.644073 2.84217094e-14"></polygon><path d="M43.4599581,158.900479 L84,206.885961 C126.699953,160.249961 151.594137,129.819963 158.682552,115.595966 C165.770967,101.37197 172.143091,62.839981 177.798925,0 L115.478146,0 C112.388642,55.2838742 110.306102,84.2121259 109.230525,86.7847551 C108.154948,89.3573843 86.2314253,113.395959 43.4599581,158.900479 Z" id="Pant" fill="#89C5CC"></path></g></g><g id="torso" transform="translate(22.000000, 82.000000)"><g id="Body/Turtle-Neck" stroke="none" stroke-width="1" fill="none" fill-rule="evenodd"><path d="M199.493124,92.4603344 L227.821028,120.095357 C236.063404,123.611168 242.816857,127.493333 248.081387,131.741853 C249.265301,133.169925 250.554184,135.906184 244.983927,134.681747 C239.413671,133.45731 233.49953,132.419902 232.45261,134.23139 C231.405691,136.042878 234.490525,138.818722 232.555688,141.189494 C231.265796,142.770009 226.92779,137.742701 219.54167,126.10757 L190.084396,108.74029 L199.493124,92.4603344 Z M60.9697919,67.4496834 L82.8671837,67.5318631 C66.1894326,121.56567 57.3363474,149.856914 56.3079281,152.405597 C53.9939846,158.140133 58.8906002,166.873732 60.9845874,171.567103 C54.1645409,174.61887 54.8912241,163.316929 46.2879189,167.319492 C38.4352209,170.972846 32.4616931,177.59248 23.3890352,171.994371 C22.2736052,171.306117 21.0512757,168.714714 24.0045784,166.68967 C31.3623323,161.644547 41.9653015,152.814672 43.3979297,149.908251 C45.3515741,145.944826 51.2088615,118.458637 60.9697919,67.4496834 Z" id="Skin" fill="rgb(0, 0, 0)"></path><path d="M122.768272,9.7139848 L131.253224,7.48281413 C149.019938,54.2642227 221.602897,80.8616426 227.451896,98.4190631 C229.596879,104.857833 225.154909,108.596168 227.774893,110.385298 L217.29519,119.561394 C215.205566,117.515062 211.513381,121.915723 202.815928,119.824345 C194.118475,117.732967 127.737533,66.5128914 122.768272,9.7139848 Z" id="Clothes-Back" fill="#DB2721" transform="translate(175.413267, 63.943241) rotate(5.000000) translate(-175.413267, -63.943241) "></path><path d="M142.240708,11.7336597 C141.243756,75.4830742 178.095832,91.7445602 169.887262,117.318245 C163.108761,138.436573 98.2273311,161.138686 87,140.43774 C82.4553197,132.058262 80.3933796,121.923875 80.1594269,110.905608 C77.2899563,119.370535 75.0205237,126.657823 73.3511268,132.767479 C70.4711839,143.30749 59.3062598,144.982871 59.3062598,149.043262 L44.5966299,144.982871 C45.5943495,139.466662 38.6598745,136.780597 40.5191881,124.456905 C48.8500046,69.239525 71.2334081,29.2141817 107.669398,4.38087468 L108.046347,-1.0097438 C108.200449,-3.21350145 110.111872,-4.87507585 112.315629,-4.72097411 L139.249859,-2.83754931 C141.453616,-2.68344757 143.115191,-0.772024866 142.961089,1.43173278 L142.240708,11.7336597 Z" id="Clothes-Front" fill="#FF4133"></path></g></g>
                </g>
                </svg>