<svg height="32" width="32" viewBox="0 0 32 32" xmlns="http://www.w3.org/2000/svg"> <path d="M26 4L6 4C4.895 4 4 4.895 4 6L4 24C4 25.105 4.895 26 6 26L8 26L8 30C8 30.388 8.224 30.741 8.576 30.906C8.927 31.071 9.342 31.017 9.64 30.769L15.363 26L20.638 26C21.106 26 21.559 25.836 21.919 25.536L27.28 21.067C27.737 20.688 28.001 20.125 28 19.531L28 6C28 4.895 27.105 4 26 4ZM16 17C16 17.552 15.552 18 15 18C14.448 18 14 17.552 14 17L14 11C14 10.448 14.448 10 15 10C15.552 10 16 10.448 16 11ZM22 17C22 17.552 21.552 18 21 18C20.448 18 20 17.552 20 17L20 11C20 10.448 20.448 10 21 10C21.552 10 22 10.448 22 11Z" fill="#F4F1DE"></path> </svg>